<?xml version="1.0" standalone="no"?>
<!DOCTYPE svg PUBLIC "-//W3C//DTD SVG 20010904//EN"
 "http://www.w3.org/TR/2001/REC-SVG-20010904/DTD/svg10.dtd">
<svg version="1.0" xmlns="http://www.w3.org/2000/svg"
 width="512.000000pt" height="512.000000pt" viewBox="0 0 512.000000 512.000000"
 preserveAspectRatio="xMidYMid meet">
<metadata>
Created by potrace 1.14, written by Peter Selinger 2001-2017
</metadata>
<g transform="translate(0.000000,512.000000) scale(0.100000,-0.100000)"
fill="#000000" stroke="none">
<path d="M390 5104 c-30 -8 -80 -26 -110 -41 -72 -35 -188 -151 -223 -223 -61
-126 -57 23 -57 -2280 0 -2303 -4 -2154 57 -2280 35 -72 151 -188 223 -223
126 -61 -23 -57 2280 -57 2303 0 2154 -4 2280 57 72 35 188 151 223 223 61
126 57 -23 57 2280 0 2303 4 2154 -57 2280 -35 72 -151 188 -223 223 -127 61
23 57 -2285 56 -1816 0 -2118 -2 -2165 -15z m2463 -880 c210 -29 365 -78 521
-167 260 -147 421 -363 471 -632 25 -133 16 -356 -20 -485 -88 -321 -347 -621
-644 -745 -115 -48 -206 -66 -366 -72 -293 -11 -458 35 -500 139 -19 49 -12
93 18 113 12 7 102 30 201 50 98 19 202 44 231 53 166 56 296 196 359 385 44
132 60 402 31 525 -38 159 -135 278 -285 350 -106 50 -183 70 -333 84 -212 20
-483 -18 -682 -95 -50 -19 -168 -72 -262 -117 -196 -93 -267 -110 -312 -73
-20 17 -23 25 -17 56 16 86 177 273 310 362 156 103 384 202 557 243 214 51
471 60 722 26z m-584 -669 c10 -30 12 -82 7 -215 -7 -227 -32 -383 -146 -930
-32 -157 -64 -315 -70 -352 -5 -37 -21 -272 -35 -522 -17 -317 -28 -464 -38
-488 -44 -106 -204 -169 -434 -172 -110 -1 -112 -1 -142 28 -48 46 -56 99 -56
381 1 257 9 344 56 600 69 371 219 875 350 1173 145 331 327 548 454 540 37
-3 41 -6 54 -43z"/>
</g>
</svg>
